<svg width="880" height="420" xmlns="http://www.w3.org/2000/svg" font-family="'SF Mono','Fira Code','Consolas',monospace">
  <defs>
    <linearGradient id="resBg" x1="0" y1="0" x2="0" y2="1">
      <stop offset="0%" stop-color="#0d1117"/>
      <stop offset="100%" stop-color="#0d1117"/>
    </linearGradient>
    <linearGradient id="certBar" x1="0" y1="0" x2="1" y2="0">
      <stop offset="0%" stop-color="#3fb950"/>
      <stop offset="88%" stop-color="#3fb950"/>
      <stop offset="88%" stop-color="#21262d"/>
      <stop offset="100%" stop-color="#21262d"/>
    </linearGradient>
    <linearGradient id="cert2Bar" x1="0" y1="0" x2="1" y2="0">
      <stop offset="0%" stop-color="#3fb950"/>
      <stop offset="97%" stop-color="#3fb950"/>
      <stop offset="97%" stop-color="#21262d"/>
      <stop offset="100%" stop-color="#21262d"/>
    </linearGradient>
    <linearGradient id="cert3Bar" x1="0" y1="0" x2="1" y2="0">
      <stop offset="0%" stop-color="#d29922"/>
      <stop offset="76%" stop-color="#d29922"/>
      <stop offset="76%" stop-color="#21262d"/>
      <stop offset="100%" stop-color="#21262d"/>
    </linearGradient>
    <linearGradient id="snipeGlow" x1="0" y1="0" x2="0" y2="1">
      <stop offset="0%" stop-color="#3fb950" stop-opacity="0.15"/>
      <stop offset="100%" stop-color="#3fb950" stop-opacity="0"/>
    </linearGradient>
  </defs>

  <rect width="880" height="420" fill="#0d1117" rx="10"/>

  <!-- Header -->
  <rect width="880" height="52" fill="#161b22" rx="10"/>
  <rect y="42" width="880" height="10" fill="#161b22"/>
  <rect y="51" width="880" height="1" fill="#30363d"/>
  <circle cx="28" cy="26" r="6" fill="#f85149" opacity="0.9"/>
  <circle cx="48" cy="26" r="6" fill="#d29922" opacity="0.9"/>
  <circle cx="68" cy="26" r="6" fill="#3fb950" opacity="0.9"/>
  <text x="92" y="20" fill="#8b949e" font-size="11">strategy 7</text>
  <text x="92" y="36" fill="#e6edf3" font-size="14" font-weight="bold">Resolution Sniper Bot  —  Near-Certainty Market Capture</text>
  <rect x="748" y="14" width="94" height="22" rx="4" fill="#0f2a18"/>
  <text x="760" y="29" fill="#3fb950" font-size="10" font-weight="bold">SNIPING ACTIVE</text>

  <!-- Left: market scanner -->
  <text x="32" y="78" fill="#8b949e" font-size="10">NEAR-RESOLUTION MARKETS</text>
  <line x1="20" y1="83" x2="430" y2="83" stroke="#21262d" stroke-width="1"/>

  <!-- Column headers -->
  <text x="32"  y="98" fill="#8b949e" font-size="9">MARKET</text>
  <text x="240" y="98" fill="#8b949e" font-size="9">CERTAINTY</text>
  <text x="340" y="98" fill="#8b949e" font-size="9">TIME LEFT</text>
  <line x1="20" y1="102" x2="430" y2="102" stroke="#21262d" stroke-width="1"/>

  <!-- Row 1 — ★ snipe target -->
  <rect x="20" y="103" width="410" height="36" fill="url(#snipeGlow)"/>
  <rect x="20" y="103" width="3" height="36" fill="#3fb950" rx="1"/>
  <text x="32"  y="119" fill="#e6edf3" font-size="11" font-weight="bold">Lakers Win NBA Game 5</text>
  <text x="32"  y="131" fill="#8b949e" font-size="9">Polymarket · YES @ 0.97</text>
  <rect x="238" y="109" width="88" height="9" rx="2" fill="url(#certBar)"/>
  <text x="238" y="130" fill="#3fb950" font-size="9">97% certain</text>
  <rect x="340" y="108" width="80" height="20" rx="3" fill="#1a2f1a" stroke="#3fb950" stroke-width="0.8"/>
  <text x="348" y="122" fill="#3fb950" font-size="10" font-weight="bold">08m 14s</text>

  <!-- Row 2 -->
  <line x1="20" y1="139" x2="430" y2="139" stroke="#21262d" stroke-width="1"/>
  <text x="32"  y="154" fill="#e6edf3" font-size="11">BTC price &gt; 50k at close</text>
  <text x="32"  y="166" fill="#8b949e" font-size="9">Kalshi · YES @ 0.98</text>
  <rect x="238" y="146" width="88" height="9" rx="2" fill="url(#cert2Bar)"/>
  <text x="238" y="167" fill="#3fb950" font-size="9">97.4% certain</text>
  <text x="340" y="162" fill="#8b949e" font-size="10">12m 40s</text>

  <!-- Row 3 -->
  <line x1="20" y1="175" x2="430" y2="175" stroke="#21262d" stroke-width="1"/>
  <text x="32"  y="190" fill="#8b949e" font-size="11">Chiefs win Super Bowl</text>
  <text x="32"  y="202" fill="#8b949e" font-size="9">Polymarket · YES @ 0.76</text>
  <rect x="238" y="182" width="88" height="9" rx="2" fill="url(#cert3Bar)"/>
  <text x="238" y="203" fill="#d29922" font-size="9">76% — below threshold</text>
  <text x="340" y="198" fill="#8b949e" font-size="10">44m 00s</text>

  <!-- Row 4 -->
  <line x1="20" y1="211" x2="430" y2="211" stroke="#21262d" stroke-width="1"/>
  <text x="32"  y="226" fill="#8b949e" font-size="11">SOL Up/Down 15m (close)</text>
  <text x="32"  y="238" fill="#8b949e" font-size="9">Polymarket · NO @ 0.02</text>
  <rect x="238" y="218" width="88" height="9" rx="2" fill="#30363d"/>
  <rect x="238" y="218" width="85" height="9" rx="2" fill="#3fb950" opacity="0.8"/>
  <text x="238" y="239" fill="#3fb950" font-size="9">98.2% — queued</text>
  <text x="340" y="234" fill="#8b949e" font-size="10">02m 55s</text>

  <!-- Threshold line -->
  <line x1="20" y1="249" x2="430" y2="249" stroke="#30363d" stroke-width="1"/>
  <text x="32" y="265" fill="#8b949e" font-size="10">Threshold: ≥ 95%  ·  2 markets in snipe queue</text>

  <!-- Config panel -->
  <rect x="20" y="274" width="200" height="68" rx="4" fill="#161b22" stroke="#30363d" stroke-width="1"/>
  <text x="32" y="292" fill="#8b949e" font-size="9">CERTAINTY THRESHOLD</text>
  <text x="32" y="308" fill="#3fb950" font-size="14" font-weight="bold">≥ 95%</text>
  <text x="32" y="326" fill="#8b949e" font-size="9">MIN TIME LEFT</text>
  <text x="32" y="332" fill="#e6edf3" font-size="13" font-weight="bold"> &lt; 15m</text>

  <rect x="230" y="274" width="200" height="68" rx="4" fill="#161b22" stroke="#30363d" stroke-width="1"/>
  <text x="242" y="292" fill="#8b949e" font-size="9">BUY PRICE</text>
  <text x="242" y="308" fill="#e6edf3" font-size="14" font-weight="bold">≤ 0.98</text>
  <text x="242" y="326" fill="#8b949e" font-size="9">PAYOUT AT RESOLUTION</text>
  <text x="242" y="340" fill="#3fb950" font-size="12" font-weight="bold">$1.00 per share</text>

  <!-- Divider -->
  <line x1="444" y1="62" x2="444" y2="357" stroke="#30363d" stroke-width="1"/>

  <!-- Right: active snipe detail -->
  <text x="464" y="78" fill="#8b949e" font-size="10">ACTIVE SNIPE  —  Lakers Win NBA Game 5</text>
  <line x1="444" y1="83" x2="860" y2="83" stroke="#21262d" stroke-width="1"/>

  <!-- Countdown clock -->
  <rect x="464" y="92" width="380" height="72" rx="6" fill="#0f2a18" stroke="#3fb950" stroke-width="1.2"/>
  <text x="654" y="116" fill="#8b949e" font-size="10" text-anchor="middle">TIME TO RESOLUTION</text>
  <text x="654" y="152" fill="#3fb950" font-size="38" font-weight="bold" text-anchor="middle">08:14</text>

  <!-- Snipe details -->
  <rect x="464" y="174" width="182" height="88" rx="4" fill="#161b22" stroke="#30363d" stroke-width="1"/>
  <text x="476" y="192" fill="#8b949e" font-size="9">SIDE</text>
  <text x="476" y="208" fill="#3fb950" font-size="14" font-weight="bold">YES</text>
  <text x="476" y="226" fill="#8b949e" font-size="9">BUY PRICE</text>
  <text x="476" y="242" fill="#e6edf3" font-size="14" font-weight="bold">0.970</text>
  <text x="476" y="255" fill="#8b949e" font-size="9">Certainty: 97%</text>

  <rect x="656" y="174" width="188" height="88" rx="4" fill="#161b22" stroke="#30363d" stroke-width="1"/>
  <text x="668" y="192" fill="#8b949e" font-size="9">ORDER SIZE</text>
  <text x="668" y="208" fill="#e6edf3" font-size="14" font-weight="bold">$200.00</text>
  <text x="668" y="226" fill="#8b949e" font-size="9">EXPECTED PAYOUT</text>
  <text x="668" y="242" fill="#3fb950" font-size="14" font-weight="bold">$206.19</text>
  <text x="668" y="255" fill="#8b949e" font-size="9">Edge: +$6.19 / +3.1%</text>

  <!-- Order type + execution -->
  <rect x="464" y="272" width="380" height="38" rx="4" fill="#0f2a18" stroke="#3fb950" stroke-width="0.8"/>
  <text x="654" y="289" fill="#e6edf3" font-size="12" font-weight="bold" text-anchor="middle">⚡ FAK — Auto-executes at threshold cross</text>
  <text x="654" y="304" fill="#3fb950" font-size="10" text-anchor="middle">Venue: Polymarket  ·  Dry run supported  ·  Full logging</text>

  <!-- Bottom stats -->
  <rect y="357" width="880" height="63" fill="#161b22" rx="0"/>
  <rect y="363" width="880" height="1" fill="#30363d"/>

  <text x="36"  y="378" fill="#8b949e" font-size="9">THRESHOLD</text>
  <text x="36"  y="398" fill="#3fb950" font-size="16" font-weight="bold">≥ 95%</text>
  <line x1="140" y1="365" x2="140" y2="412" stroke="#30363d" stroke-width="1"/>
  <text x="156" y="378" fill="#8b949e" font-size="9">WINDOW</text>
  <text x="156" y="398" fill="#e6edf3" font-size="16" font-weight="bold">&lt; 15 min</text>
  <line x1="310" y1="365" x2="310" y2="412" stroke="#30363d" stroke-width="1"/>
  <text x="326" y="378" fill="#8b949e" font-size="9">PAYOUT</text>
  <text x="326" y="398" fill="#e6edf3" font-size="16" font-weight="bold">$1.00 / share</text>
  <line x1="510" y1="365" x2="510" y2="412" stroke="#30363d" stroke-width="1"/>
  <text x="526" y="378" fill="#8b949e" font-size="9">VENUES</text>
  <text x="526" y="398" fill="#e6edf3" font-size="15" font-weight="bold">PM · Kalshi · Limitless</text>
  <line x1="750" y1="365" x2="750" y2="412" stroke="#30363d" stroke-width="1"/>
  <text x="766" y="378" fill="#8b949e" font-size="9">STRATEGY</text>
  <text x="766" y="398" fill="#3fb950" font-size="14" font-weight="bold">Near-certainty ✓</text>

  <text x="868" y="416" fill="#8b949e" font-size="9" opacity="0.45" text-anchor="end">@haredoggy</text>
</svg>
